<svg width="20" height="20" viewBox="0 0 20 20" fill="none" xmlns="http://www.w3.org/2000/svg">
<path d="M17.5625 19.375C18.6797 19.375 19.625 18.4727 19.625 17.3125V2.1875C19.625 1.07031 18.6797 0.125 17.5625 0.125H2.43749C1.27733 0.125 0.37499 1.07031 0.37499 2.1875V17.3125C0.37499 18.4727 1.27733 19.375 2.43749 19.375H17.5625ZM11.2031 14.2617C11.6328 14.6484 11.6328 15.3359 11.2461 15.7227L10.7734 16.1953C10.3867 16.582 9.69921 16.582 9.31249 16.1953L3.59765 10.4805C3.21093 10.0938 3.21093 9.44922 3.59765 9.01953L9.31249 3.34766C9.69921 2.91797 10.3437 2.91797 10.7734 3.34766L11.2461 3.82031C11.6328 4.20703 11.6328 4.89453 11.2031 5.28125L7.98046 8.375H15.8437C16.4023 8.375 16.875 8.84766 16.875 9.40625V10.0938C16.875 10.6953 16.4023 11.125 15.8437 11.125H7.98046L11.2031 14.2617Z" fill="white" fill-opacity="0.75"/>
</svg>
