<svg width="21" height="20" viewBox="0 0 21 20" fill="none" xmlns="http://www.w3.org/2000/svg">
<path d="M2.93734 0.125C1.77718 0.125 0.874837 1.07031 0.874837 2.1875V17.3125C0.874837 18.4727 1.77718 19.375 2.93734 19.375H18.0623C19.1795 19.375 20.1248 18.4727 20.1248 17.3125V2.1875C20.1248 1.07031 19.1795 0.125 18.0623 0.125H2.93734ZM9.25374 5.28125C8.82406 4.89453 8.82406 4.20703 9.21077 3.82031L9.68343 3.34766C10.1131 2.91797 10.7576 2.91797 11.1444 3.34766L16.8592 9.0625C17.2459 9.44922 17.2459 10.0938 16.8592 10.4805L11.1444 16.1953C10.7576 16.582 10.1131 16.582 9.68343 16.1953L9.21077 15.7227C8.82406 15.3359 8.82406 14.6484 9.25374 14.2617L12.4764 11.125H4.65609C4.05452 11.125 3.62484 10.6953 3.62484 10.0938V9.40625C3.62484 8.84766 4.05452 8.375 4.65609 8.375H12.4764L9.25374 5.28125Z" fill="white" fill-opacity="0.75"/>
</svg>
