<svg width="12" height="13" viewBox="0 0 12 13" fill="none" xmlns="http://www.w3.org/2000/svg">
<path d="M6 0.5C2.67188 0.5 0 3.19531 0 6.5C0 9.82812 2.67188 12.5 6 12.5C9.30469 12.5 12 9.82812 12 6.5C12 3.19531 9.30469 0.5 6 0.5ZM6 11.75C3.09375 11.75 0.75 9.40625 0.75 6.5C0.75 3.61719 3.09375 1.25 6 1.25C8.88281 1.25 11.25 3.61719 11.25 6.5C11.25 9.40625 8.88281 11.75 6 11.75ZM6 4.8125C6.30469 4.8125 6.5625 4.57812 6.5625 4.25C6.5625 3.94531 6.30469 3.6875 6 3.6875C5.67188 3.6875 5.4375 3.94531 5.4375 4.25C5.4375 4.57812 5.67188 4.8125 6 4.8125ZM7.125 8.75H6.375V6.125C6.375 5.9375 6.1875 5.75 6 5.75H5.25C5.03906 5.75 4.875 5.9375 4.875 6.125C4.875 6.33594 5.03906 6.5 5.25 6.5H5.625V8.75H4.875C4.66406 8.75 4.5 8.9375 4.5 9.125C4.5 9.33594 4.66406 9.5 4.875 9.5H7.125C7.3125 9.5 7.5 9.33594 7.5 9.125C7.5 8.9375 7.3125 8.75 7.125 8.75Z" fill="white"/>
</svg>
