<svg width="21" height="20" viewBox="0 0 21 20" fill="none" xmlns="http://www.w3.org/2000/svg">
<path d="M7.06243 19.332C8.17962 19.332 9.12493 18.4297 9.12493 17.2695V2.14453C9.12493 1.02734 8.17962 0.0820312 7.06243 0.0820312H2.93743C1.77727 0.0820312 0.87493 1.02734 0.87493 2.14453V17.2695C0.87493 18.4297 1.77727 19.332 2.93743 19.332H7.06243ZM20.1249 17.2695V2.14453C20.1249 1.02734 19.1796 0.0820312 18.0624 0.0820312H13.9374C12.7773 0.0820312 11.8749 1.02734 11.8749 2.14453V17.2695C11.8749 18.4297 12.7773 19.332 13.9374 19.332H18.0624C19.1796 19.332 20.1249 18.4297 20.1249 17.2695Z" fill="white" fill-opacity="0.75"/>
</svg>
