<svg width="12" height="13" viewBox="0 0 12 13" fill="none" xmlns="http://www.w3.org/2000/svg">
<path d="M6 0.5C2.67188 0.5 0 3.19531 0 6.5C0 9.82812 2.67188 12.5 6 12.5C9.30469 12.5 12 9.82812 12 6.5C12 3.19531 9.30469 0.5 6 0.5ZM7.875 7.60156C8.08594 7.83594 8.08594 8.1875 7.875 8.39844C7.64062 8.63281 7.28906 8.63281 7.07812 8.39844L6 7.29688L4.875 8.39844C4.66406 8.63281 4.3125 8.63281 4.10156 8.39844C3.86719 8.1875 3.86719 7.83594 4.10156 7.60156L5.20312 6.5L4.10156 5.39844C3.86719 5.16406 3.86719 4.8125 4.10156 4.60156C4.3125 4.36719 4.66406 4.36719 4.875 4.60156L6 5.72656L7.10156 4.625C7.3125 4.39062 7.66406 4.39062 7.875 4.625C8.10938 4.83594 8.10938 5.1875 7.875 5.42188L6.77344 6.52344L7.875 7.60156Z" fill="white"/>
</svg>
